<?xml version="1.0"?>
<svg xmlns:serif="http://www.serif.com/" xmlns="http://www.w3.org/2000/svg" xmlns:xlink="http://www.w3.org/1999/xlink" version="1.1" id="Layer_1" x="0px" y="0px" viewBox="0 0 359.7 114.4" enable-background="new 0 0 359.7 114.4" xml:space="preserve" width="1200" height="380"><g><g><linearGradient id="SVGID_1_" gradientUnits="userSpaceOnUse" x1="8.5575" y1="81.1895" x2="93.2438" y2="32.2959"><stop offset="0" style="stop-color:#F9BE4D" fill="currentColor"/><stop offset="0.4887" style="stop-color:#F4836E" fill="currentColor"/><stop offset="0.9181" style="stop-color:#F37477" fill="currentColor"/><stop offset="0.9297" style="stop-color:#F37377" fill="currentColor"/> </linearGradient><path fill="currentColor" d="M47.7,85.2L47.7,85.2l0,10.9l0,0v7.4L8.5,81V32.4L47.7,10v7.4L14.9,36.2v41.1l26.4,15v-3.6    l-11.6-6.6v-4.3l0,0V38.9l-5.2,3V58l-6.4,3.7V38.1l29.6-16.9v7.4l0,0v15.7l-6.4,3.7V32.3l-5.2,2.9v43.2L47.7,85V85.2z M60.5,24.9    v7.4v1.2v1.1v12.6L75,55.8l2.3,1.4v-9.5v-5.8v-7.4l6.4,3.7v37.4L54.1,92.4V85l0,0V58.4l6.4,3.8v19.2l16.7-9.6v-7.2l-16.8-10    l-4-2.2L54.1,51l0-16.4h0v-5.9v-7.4v-6.5h0v-4.7l39.2,22.4V81l-39.2,22.3V96l32.8-18.7V36.2L60.5,21.1V24.9z"/> </g> </g><g><g><path d="M116.8,41.5l-3.6,5.8h-6.6v-5.8H116.8z M122.3,74.9h-6.8V47.4c0-2,0.8-3.5,2.5-4.7c1.1-0.8,2.4-1.2,3.8-1.2h10v5.8h-9.6    V74.9z" fill="currentColor"/><path d="M142.8,61.2v7.8H160l3.2,5.8h-20.8c-2.1,0-3.9-0.8-5.1-2.4c-0.8-1.1-1.2-2.2-1.2-3.5V47.4c0-2,0.8-3.5,2.5-4.7    c1.1-0.8,2.4-1.2,3.8-1.2h20.8l-3.2,5.8h-17.2v8.2h15.9v5.8H142.8z" fill="currentColor"/><path d="M173.4,54.2v8c0,2.3,0.8,4.1,2.5,5.5c1.1,0.9,2.4,1.4,3.7,1.4h4.5c1.8,0,3.4-0.6,4.6-1.8c0.2-0.2,0.3-0.3,0.4-0.5l5.8,4.5    c-1.6,1.6-4.2,2.7-7.6,3.3c-1.2,0.2-2.3,0.4-3.3,0.4h-4.5c-3.6,0-6.7-1.3-9.3-3.9c-2.4-2.5-3.6-5.4-3.6-8.8v-8    c0-3.6,1.3-6.6,3.9-9.1c2.5-2.4,5.6-3.6,9.1-3.6h4.5c2.8,0,5.6,0.6,8.3,1.9c1.1,0.6,2,1.1,2.6,1.8l-5.8,4.5    c-1-1.3-2.4-2.1-4.3-2.3c-0.3,0-0.6,0-0.8,0h-4.5c-2,0-3.6,0.9-4.9,2.7C173.8,51.2,173.4,52.6,173.4,54.2z" fill="currentColor"/><path d="M206.8,59.1l2.3-3.6h12.2v-14h6.8v33.4h-6.8V61.2h-14.5v13.6h-6.7V41.5h6.7V59.1z" fill="currentColor"/><path d="M234,61.2v-5.8h17.4v5.8H234z" fill="currentColor"/><path d="M270.1,56l9.3-14.5h7.2l-9.8,15.8c-1.2,1.8-2.3,3.1-3.3,3.8v13.8h-6.8V61.2c-1.1-0.8-2.3-2.1-3.4-3.9l-9.8-15.8h7.2    L270.1,56z" fill="currentColor"/><path d="M296,61.2v7.8h17.2l3.2,5.8h-20.8c-2.1,0-3.9-0.8-5.1-2.4c-0.8-1.1-1.2-2.2-1.2-3.5V47.4c0-2,0.8-3.5,2.5-4.7    c1.1-0.8,2.4-1.2,3.8-1.2h20.8l-3.2,5.8H296v8.2h15.9v5.8H296z" fill="currentColor"/><path d="M320.2,51c0-2.7,1.3-5,3.8-6.9c2.4-1.8,5.3-2.7,8.7-2.7h4.5c2.7,0,5.4,0.6,7.9,1.9c1.1,0.6,1.9,1.1,2.5,1.8l-5.9,4.5    c-1-1.3-2.3-2.1-4-2.3c-0.2,0-0.4,0-0.6,0h-4.5c-2.2,0-3.9,0.6-5,1.8c-0.5,0.6-0.7,1.2-0.7,1.9c0,1.1,1.2,2.1,3.6,2.9    c0.8,0.3,2.1,0.6,3.9,1.1c4.4,1.1,7.5,2.3,9.2,3.3c2.9,1.8,4.3,4.1,4.4,6.9c0,2.7-1.3,4.9-3.9,6.8c-2.5,1.8-5.6,2.7-9.1,2.7h-4.5    c-2.8,0-5.6-0.6-8.3-1.9c-1.1-0.6-2-1.1-2.6-1.8l5.8-4.5c1,1.3,2.5,2.1,4.3,2.3c0.3,0,0.6,0,0.8,0h4.5c2.4,0,4.2-0.6,5.4-1.9    c0.5-0.6,0.8-1.2,0.8-1.8c0-1.3-1.2-2.4-3.6-3.2c-0.4-0.1-2.5-0.7-6.4-1.8c-4.5-1.2-7.5-2.7-9.1-4.4    C320.9,54.6,320.2,52.9,320.2,51z" fill="currentColor"/> </g><g><linearGradient id="SVGID_00000013904797716733631230000006231780265402613661_" gradientUnits="userSpaceOnUse" x1="129.8571" y1="1.1051" x2="322.2104" y2="112.1603"><stop offset="4.993059e-9" style="stop-color:#F37377" fill="currentColor"/><stop offset="0.4571" style="stop-color:#F58D69" fill="currentColor"/><stop offset="0.7079" style="stop-color:#F7A35C" fill="currentColor"/><stop offset="1" style="stop-color:#F8B94F" fill="currentColor"/> </linearGradient><path fill="currentColor" d="M116.8,41.5l-3.6,5.8h-6.6v-5.8H116.8z     M122.3,74.9h-6.8V47.4c0-2,0.8-3.5,2.5-4.7c1.1-0.8,2.4-1.2,3.8-1.2h10v5.8h-9.6V74.9z"/><linearGradient id="SVGID_00000078018575777636719870000009404962148248238761_" gradientUnits="userSpaceOnUse" x1="129.8571" y1="1.1051" x2="322.2104" y2="112.1603"><stop offset="4.993059e-9" style="stop-color:#F37377" fill="currentColor"/><stop offset="0.4571" style="stop-color:#F58D69" fill="currentColor"/><stop offset="0.7079" style="stop-color:#F7A35C" fill="currentColor"/><stop offset="1" style="stop-color:#F8B94F" fill="currentColor"/> </linearGradient><path fill="currentColor" d="M142.8,61.2v7.8H160l3.2,5.8h-20.8    c-2.1,0-3.9-0.8-5.1-2.4c-0.8-1.1-1.2-2.2-1.2-3.5V47.4c0-2,0.8-3.5,2.5-4.7c1.1-0.8,2.4-1.2,3.8-1.2h20.8l-3.2,5.8h-17.2v8.2    h15.9v5.8H142.8z"/><linearGradient id="SVGID_00000146458199741607840980000009434002209977043101_" gradientUnits="userSpaceOnUse" x1="129.8571" y1="1.1051" x2="322.2104" y2="112.1603"><stop offset="4.993059e-9" style="stop-color:#F37377" fill="currentColor"/><stop offset="0.4571" style="stop-color:#F58D69" fill="currentColor"/><stop offset="0.7079" style="stop-color:#F7A35C" fill="currentColor"/><stop offset="1" style="stop-color:#F8B94F" fill="currentColor"/> </linearGradient><path fill="currentColor" d="M173.4,54.2v8c0,2.3,0.8,4.1,2.5,5.5    c1.1,0.9,2.4,1.4,3.7,1.4h4.5c1.8,0,3.4-0.6,4.6-1.8c0.2-0.2,0.3-0.3,0.4-0.5l5.8,4.5c-1.6,1.6-4.2,2.7-7.6,3.3    c-1.2,0.2-2.3,0.4-3.3,0.4h-4.5c-3.6,0-6.7-1.3-9.3-3.9c-2.4-2.5-3.6-5.4-3.6-8.8v-8c0-3.6,1.3-6.6,3.9-9.1    c2.5-2.4,5.6-3.6,9.1-3.6h4.5c2.8,0,5.6,0.6,8.3,1.9c1.1,0.6,2,1.1,2.6,1.8l-5.8,4.5c-1-1.3-2.4-2.1-4.3-2.3c-0.3,0-0.6,0-0.8,0    h-4.5c-2,0-3.6,0.9-4.9,2.7C173.8,51.2,173.4,52.6,173.4,54.2z"/><linearGradient id="SVGID_00000072266044910374032580000017237073174709499307_" gradientUnits="userSpaceOnUse" x1="129.8571" y1="1.1051" x2="322.2104" y2="112.1603"><stop offset="4.993059e-9" style="stop-color:#F37377" fill="currentColor"/><stop offset="0.4571" style="stop-color:#F58D69" fill="currentColor"/><stop offset="0.7079" style="stop-color:#F7A35C" fill="currentColor"/><stop offset="1" style="stop-color:#F8B94F" fill="currentColor"/> </linearGradient><path fill="currentColor" d="M206.8,59.1l2.3-3.6h12.2v-14h6.8v33.4h-6.8    V61.2h-14.5v13.6h-6.7V41.5h6.7V59.1z"/><linearGradient id="SVGID_00000043430774055649827250000011895269739889586342_" gradientUnits="userSpaceOnUse" x1="129.8571" y1="1.1051" x2="322.2104" y2="112.1603"><stop offset="4.993059e-9" style="stop-color:#F37377" fill="currentColor"/><stop offset="0.4571" style="stop-color:#F58D69" fill="currentColor"/><stop offset="0.7079" style="stop-color:#F7A35C" fill="currentColor"/><stop offset="1" style="stop-color:#F8B94F" fill="currentColor"/> </linearGradient><path fill="currentColor" d="M234,61.2v-5.8h17.4v5.8H234z"/><linearGradient id="SVGID_00000127765553438182906670000007836114148731453100_" gradientUnits="userSpaceOnUse" x1="129.8571" y1="1.1051" x2="322.2104" y2="112.1603"><stop offset="4.993059e-9" style="stop-color:#F37377" fill="currentColor"/><stop offset="0.4571" style="stop-color:#F58D69" fill="currentColor"/><stop offset="0.7079" style="stop-color:#F7A35C" fill="currentColor"/><stop offset="1" style="stop-color:#F8B94F" fill="currentColor"/> </linearGradient><path fill="currentColor" d="M270.1,56l9.3-14.5h7.2l-9.8,15.8    c-1.2,1.8-2.3,3.1-3.3,3.8v13.8h-6.8V61.2c-1.1-0.8-2.3-2.1-3.4-3.9l-9.8-15.8h7.2L270.1,56z"/><linearGradient id="SVGID_00000036970915479742668620000006996085049004644505_" gradientUnits="userSpaceOnUse" x1="129.8571" y1="1.1051" x2="322.2104" y2="112.1603"><stop offset="4.993059e-9" style="stop-color:#F37377" fill="currentColor"/><stop offset="0.4571" style="stop-color:#F58D69" fill="currentColor"/><stop offset="0.7079" style="stop-color:#F7A35C" fill="currentColor"/><stop offset="1" style="stop-color:#F8B94F" fill="currentColor"/> </linearGradient><path fill="currentColor" d="M296,61.2v7.8h17.2l3.2,5.8h-20.8    c-2.1,0-3.9-0.8-5.1-2.4c-0.8-1.1-1.2-2.2-1.2-3.5V47.4c0-2,0.8-3.5,2.5-4.7c1.1-0.8,2.4-1.2,3.8-1.2h20.8l-3.2,5.8H296v8.2h15.9    v5.8H296z"/><linearGradient id="SVGID_00000090296435355675372050000000430329706722110399_" gradientUnits="userSpaceOnUse" x1="129.8571" y1="1.1051" x2="322.2104" y2="112.1603"><stop offset="4.993059e-9" style="stop-color:#F37377" fill="currentColor"/><stop offset="0.4571" style="stop-color:#F58D69" fill="currentColor"/><stop offset="0.7079" style="stop-color:#F7A35C" fill="currentColor"/><stop offset="1" style="stop-color:#F8B94F" fill="currentColor"/> </linearGradient><path fill="currentColor" d="M320.2,51c0-2.7,1.3-5,3.8-6.9    c2.4-1.8,5.3-2.7,8.7-2.7h4.5c2.7,0,5.4,0.6,7.9,1.9c1.1,0.6,1.9,1.1,2.5,1.8l-5.9,4.5c-1-1.3-2.3-2.1-4-2.3c-0.2,0-0.4,0-0.6,0    h-4.5c-2.2,0-3.9,0.6-5,1.8c-0.5,0.6-0.7,1.2-0.7,1.9c0,1.1,1.2,2.1,3.6,2.9c0.8,0.3,2.1,0.6,3.9,1.1c4.4,1.1,7.5,2.3,9.2,3.3    c2.9,1.8,4.3,4.1,4.4,6.9c0,2.7-1.3,4.9-3.9,6.8c-2.5,1.8-5.6,2.7-9.1,2.7h-4.5c-2.8,0-5.6-0.6-8.3-1.9c-1.1-0.6-2-1.1-2.6-1.8    l5.8-4.5c1,1.3,2.5,2.1,4.3,2.3c0.3,0,0.6,0,0.8,0h4.5c2.4,0,4.2-0.6,5.4-1.9c0.5-0.6,0.8-1.2,0.8-1.8c0-1.3-1.2-2.4-3.6-3.2    c-0.4-0.1-2.5-0.7-6.4-1.8c-4.5-1.2-7.5-2.7-9.1-4.4C320.9,54.6,320.2,52.9,320.2,51z"/> </g> </g> </svg>
